<svg xmlns="http://www.w3.org/2000/svg" width="375" height="232" fill="none" viewBox="0 0 375 232"><g clip-path="url(#a)"><path fill="#301534" d="M0 0h375v232H0z"/><path stroke="#AD28EB" stroke-linecap="round" stroke-width="3" d="M-860-119.139C-693.416 9.858-650.541 71.271-500.943 124.979c73.912 26.536 120.497 20.42 144.635 19.956 78.405-1.507 153.535-32.427 224.088-64.12 28.78-12.928 56.94-27.14 84.09-43.22C-30.193 26.97-3.955 12.16.435-10.72c1.741-9.076-12.283-9.18-17.837-7.34C-27.54-14.707-36.874-5.654-44.458 1.19c-14.355 12.954-27.81 26.96-39.946 42.022-25.309 31.411-51.052 75.184-25.631 114.007 12.97 19.811 32.97 34.27 54.11 44.345 42.159 20.092 89.45 29.055 135.653 33.108 123.391 10.824 246.848-2.595 362.439-47.715 59.847-23.36 118.972-52.903 168.254-94.681 36.437-30.89 77.141-72.41 83.04-122.172 8.196-69.138-70.57-102.044-127.033-111.311-46.084-7.563-92.856-3.123-138.126 7.191-58.723 13.38-111.808 35.752-160.759 70.787C169.992 6.588 91.241 108.076 63.09 226.133c-11.736 49.218-12.492 103.655 4.122 151.91 16.097 46.752 51.923 82.929 93.083 108.688 48.862 30.58 102.923 46.605 159.71 54.906 75.394 11.023 152.192 9.175 227.386-2.247 132.191-20.079 264.677-66.321 379.078-135.804 77.451-47.043 149.551-100.61 210.151-168.314 13.28-14.844 23.87-30.656 32.82-48.39 107.72-213.399 50.24-278.668 50.24-282.772"/></g><defs><clipPath id="a"><path fill="#fff" d="M0 0h375v232H0z"/></clipPath></defs></svg>