<svg xmlns="http://www.w3.org/2000/svg">
  <symbol id="bug-line" viewBox="0 0 24 24">
    <path
      d="M13 19.9C15.2822 19.4367 17 17.419 17 15V12C17 11.299 16.8564 10.6219 16.5846 10H7.41538C7.14358 10.6219 7 11.299 7 12V15C7 17.419 8.71776 19.4367 11 19.9V14H13V19.9ZM5.5358 17.6907C5.19061 16.8623 5 15.9534 5 15H2V13H5V12C5 11.3573 5.08661 10.7348 5.2488 10.1436L3.0359 8.86602L4.0359 7.13397L6.05636 8.30049C6.11995 8.19854 6.18609 8.09835 6.25469 8H17.7453C17.8139 8.09835 17.88 8.19854 17.9436 8.30049L19.9641 7.13397L20.9641 8.86602L18.7512 10.1436C18.9134 10.7348 19 11.3573 19 12V13H22V15H19C19 15.9534 18.8094 16.8623 18.4642 17.6907L20.9641 19.134L19.9641 20.866L17.4383 19.4077C16.1549 20.9893 14.1955 22 12 22C9.80453 22 7.84512 20.9893 6.56171 19.4077L4.0359 20.866L3.0359 19.134L5.5358 17.6907ZM8 6C8 3.79086 9.79086 2 12 2C14.2091 2 16 3.79086 16 6H8Z"
    ></path>
  </symbol>
  <symbol id="mail-line" viewBox="0 0 24 24">
    <path
      d="M3 3H21C21.5523 3 22 3.44772 22 4V20C22 20.5523 21.5523 21 21 21H3C2.44772 21 2 20.5523 2 20V4C2 3.44772 2.44772 3 3 3ZM20 7.23792L12.0718 14.338L4 7.21594V19H20V7.23792ZM4.51146 5L12.0619 11.662L19.501 5H4.51146Z"
    ></path>
  </symbol>
  <symbol id="twitter-x-line" viewBox="0 0 24 24">
    <path
      d="M8 2H1L9.26086 13.0145L1.44995 21.9999H4.09998L10.4883 14.651L16 22H23L14.3917 10.5223L21.8001 2H19.1501L13.1643 8.88578L8 2ZM17 20L5 4H7L19 20H17Z"
    ></path>
  </symbol>
</svg>
