<svg xmlns="http://www.w3.org/2000/svg" width="1440" height="569"><path fill="#46485B" fill-rule="evenodd" d="M774 563a3 3 0 110 6 3 3 0 010-6zm-623.5-5a1.5 1.5 0 110 3 1.5 1.5 0 010-3zm875 0a1.5 1.5 0 110 3 1.5 1.5 0 010-3zm-523-3a1.5 1.5 0 110 3 1.5 1.5 0 010-3zm233-7a1.5 1.5 0 110 3 1.5 1.5 0 010-3zM178 542a3 3 0 110 6 3 3 0 010-6zm1127.5 2a1.5 1.5 0 110 3 1.5 1.5 0 010-3zm45.5-10a3 3 0 110 6 3 3 0 010-6zm-565.5-3a1.5 1.5 0 110 3 1.5 1.5 0 010-3zm-784-15a1.5 1.5 0 110 3 1.5 1.5 0 010-3zm278.5-9a3 3 0 110 6 3 3 0 010-6zm207.5-30a1.5 1.5 0 110 3 1.5 1.5 0 010-3zm50-17a1.5 1.5 0 110 3 1.5 1.5 0 010-3zm233-8a1.5 1.5 0 110 3 1.5 1.5 0 010-3zm465-22a1.5 1.5 0 110 3 1.5 1.5 0 010-3zm-699-6a1.5 1.5 0 110 3 1.5 1.5 0 010-3zm-465-22a1.5 1.5 0 110 3 1.5 1.5 0 010-3zm1165-8a1.5 1.5 0 110 3 1.5 1.5 0 010-3zm-50-17a1.5 1.5 0 110 3 1.5 1.5 0 010-3zM250 345a3 3 0 110 6 3 3 0 010-6zm450.5-7a1.5 1.5 0 110 3 1.5 1.5 0 010-3zm-614-15a1.5 1.5 0 110 3 1.5 1.5 0 010-3zm520-13a1.5 1.5 0 110 3 1.5 1.5 0 010-3zm-570-4a1.5 1.5 0 110 3 1.5 1.5 0 010-3zm1169.5-7a3 3 0 110 6 3 3 0 010-6zm-4.5 0a1.5 1.5 0 110 3 1.5 1.5 0 010-3zm-875-3a1.5 1.5 0 110 3 1.5 1.5 0 010-3zm523 0a1.5 1.5 0 110 3 1.5 1.5 0 010-3zm-392-34a1.5 1.5 0 110 3 1.5 1.5 0 010-3zm656 0a1.5 1.5 0 110 3 1.5 1.5 0 010-3zm-1008-3a1.5 1.5 0 110 3 1.5 1.5 0 010-3zm1298-7a1.5 1.5 0 110 3 1.5 1.5 0 010-3zm-570-4a1.5 1.5 0 110 3 1.5 1.5 0 010-3zm520-13a1.5 1.5 0 110 3 1.5 1.5 0 010-3zm-145.5-9a3 3 0 110 6 3 3 0 010-6zm-601.5-6a1.5 1.5 0 110 3 1.5 1.5 0 010-3zm499.5-29a3 3 0 110 6 3 3 0 010-6zm-985.5-10a1.5 1.5 0 110 3 1.5 1.5 0 010-3zm-50-17a1.5 1.5 0 110 3 1.5 1.5 0 010-3zm1298-8a1.5 1.5 0 110 3 1.5 1.5 0 010-3zm-465-22a1.5 1.5 0 110 3 1.5 1.5 0 010-3zm-832-6a1.5 1.5 0 110 3 1.5 1.5 0 010-3zm33.5-18a3 3 0 110 6 3 3 0 010-6zm431.5-4a1.5 1.5 0 110 3 1.5 1.5 0 010-3zm366-8a1.5 1.5 0 110 3 1.5 1.5 0 010-3zm50-17a1.5 1.5 0 110 3 1.5 1.5 0 010-3zm486-39a1.5 1.5 0 110 3 1.5 1.5 0 010-3zM1136 29a3 3 0 110 6 3 3 0 010-6zm-614.5-2a1.5 1.5 0 110 3 1.5 1.5 0 010-3zM412 23a3 3 0 110 6 3 3 0 010-6zM1.5 14a1.5 1.5 0 110 3 1.5 1.5 0 010-3zm570-4a1.5 1.5 0 110 3 1.5 1.5 0 010-3zm366-7a1.5 1.5 0 110 3 1.5 1.5 0 010-3zm-656-3a1.5 1.5 0 110 3 1.5 1.5 0 010-3zm1008 0a1.5 1.5 0 110 3 1.5 1.5 0 010-3z"/></svg>