<svg xmlns="http://www.w3.org/2000/svg" width="192" height="192" fill="none" viewBox="0 0 192 192"><path fill="#fff" d="M15.475 136.666c.423 1.42 1.306 3.033 2.765 3.033 1.382 0 2.342-1.382 2.726-2.726.922-3.034.423-6.336-.806-9.255-1.229-2.918-3.034-5.529-4.877-8.102-.46-.653-1.075-1.344-1.843-1.267-.691.077-1.19.806-1.229 1.536 0 .729.192 1.421.538 2.073 1.075 2.458 1.92 4.148 1.881 6.797-.038 2.65-.038 5.376.845 7.911ZM146.88 30.029a3.2 3.2 0 0 1-.845-.115 139.375 139.375 0 0 1-10.291-3.303 136.135 136.135 0 0 1-13.747-5.952c-3.648-1.843-6.643-2.65-10.368-3.686l-1.152-.307c-10.522-2.919-20.813-4.301-30.682-4.11h-.077c-1.42.04-2.88.04-4.108-.806a2.654 2.654 0 0 1-1.19-2.534c.306-1.843 2.649-2.266 3.378-2.42 10.522-2.073 22.234-1.305 34.791 2.305 10.675 3.072 20.621 7.68 32.256 13.67 1.267.615 2.457 1.344 3.609 2.15 1.152.769 1.536 2.266.922 3.533-.422.884-1.421 1.536-2.496 1.575Zm-.691-.653c1.075.307 2.265-.23 2.726-1.267a2.177 2.177 0 0 0-.729-2.803 33.19 33.19 0 0 0-3.572-2.074c-11.635-5.952-21.542-10.56-32.179-13.594C99.994 6.068 88.397 5.3 77.914 7.334c-1.844.346-2.765.999-2.957 1.959-.115.806.269 1.574.96 1.997 1.075.768 2.457.73 3.763.69h.077c9.907-.191 20.275 1.191 30.835 4.148l1.152.307c3.802 1.037 6.797 1.882 10.483 3.725 4.455 2.227 9.024 4.224 13.709 5.914a144.466 144.466 0 0 0 10.253 3.302ZM55.68 19.315c-2.112 0-2.65-1.037-2.803-1.69-.346-1.574 1.075-3.763 2.995-4.646 4.032-1.805 8.448-2.65 12.902-2.496.845.039 1.844.154 2.42.845.844.96.46 2.458-.384 3.302-.845.845-2.074 1.114-3.034 1.383l-2.42.614c-1.574.384-3.225.807-4.8 1.229-.575.154-1.113.346-1.65.576-1.076.422-2.19.845-3.188.883h-.038Zm11.98-8.256c-3.954 0-7.91.845-11.52 2.458-1.65.73-2.956 2.688-2.687 3.993.23 1.037 1.344 1.23 2.265 1.23.922 0 1.959-.423 2.996-.846a12.5 12.5 0 0 1 1.69-.576c1.612-.422 3.225-.844 4.8-1.228a55.803 55.803 0 0 0 2.418-.615c.96-.23 2.036-.537 2.804-1.229.652-.614.96-1.804.384-2.496-.461-.499-1.23-.614-2.036-.652-.384-.039-.768-.039-1.113-.039Z"/><path fill="#fff" d="M54.835 172.877a6.574 6.574 0 0 1-6.374-4.992c-3.994-16.167-7.795-32.794-11.367-49.383a1658.961 1658.961 0 0 1-9.984-50.227c-.422-2.304-.998-4.685-1.574-7.219-1.382-5.914-2.842-12.058-2.611-17.626.23-5.913 4.761-7.564 9.024-8.64 21.58-5.49 43.392-9.37 64.435-13.132 8.563-1.536 17.434-3.11 25.997-4.762 2.573-.5 5.107 1.267 5.76 3.994l28.454 118.156c.499 2.112.96 4.493-.192 6.413-.883 1.421-2.381 2.151-3.955 2.803-30.49 12.864-63.091 21.12-96.883 24.576-.269.039-.5.039-.73.039Zm-5.798-5.146a5.933 5.933 0 0 0 6.451 4.531c33.293-3.302 65.856-11.596 96.691-24.499 1.498-.614 2.919-1.305 3.687-2.573 1.036-1.728.614-3.993.153-5.952L127.565 21.043c-.576-2.419-2.803-3.993-5.069-3.571-8.563 1.651-17.434 3.226-25.997 4.723-21.081 3.763-42.854 7.642-64.397 13.133-5.145 1.306-8.37 3.11-8.563 8.102-.23 5.453 1.229 11.559 2.611 17.472.615 2.535 1.152 4.954 1.575 7.258 3.11 16.858 6.451 33.754 9.984 50.227 3.494 16.551 7.334 33.178 11.328 49.344Z"/><path fill="#fff" d="M35.482 59.366c.192.999.499 2.112 1.382 2.573.96.5 2.074 0 3.034-.46 8.87-4.34 18.624-6.106 28.108-7.834l26.919-4.877c1.574-.307 3.379-.691 4.262-2.112.883-1.42.615-3.226.346-4.877l-1.383-7.833c-.115-.576-.23-1.23-.69-1.575-.462-.345-1.114-.307-1.69-.192l-28.724 4.762c-6.105.998-12.25 2.035-18.316 3.648a82.376 82.376 0 0 0-9.024 2.918c-2.112.845-5.146 1.383-5.415 4.032-.422 3.802.423 8.141 1.19 11.827ZM39.898 72.538c-.653.422-1.383 1.075-1.306 1.881.154.653.691 1.152 1.344 1.19a3.92 3.92 0 0 0 1.882-.345c11.942-3.917 24.192-6.912 36.633-8.87 3.226-.5 6.567-.999 9.178-3.034.499-.384 1.037-.96.998-1.651a1.508 1.508 0 0 0-1.229-1.306c-.614-.077-1.267-.038-1.843.154l-18.854 4.57c-6.183 1.497-12.557 3.609-18.893 4.53-2.842.346-5.53 1.306-7.91 2.88ZM46.925 100.186c-.653.422-1.383 1.075-1.267 1.881a1.467 1.467 0 0 0 1.344 1.152 3.77 3.77 0 0 0 1.843-.345 234.575 234.575 0 0 1 36.173-9.255c3.187-.537 6.49-1.075 9.062-3.11.5-.423 1.037-.96.998-1.613a1.468 1.468 0 0 0-1.19-1.267c-.614-.077-1.229 0-1.843.192l-18.663 4.723c-6.105 1.574-12.403 3.763-18.662 4.723a18.845 18.845 0 0 0-7.795 2.919Z"/><path fill="#D8DB2F" d="M51.187 117.197c-.652.422-1.382 1.075-1.267 1.881.115.653.691 1.114 1.306 1.152.652 0 1.267-.115 1.843-.345 11.712-4.109 23.693-7.296 35.904-9.485 3.149-.576 6.451-1.152 8.986-3.187.499-.423.998-.96.96-1.613-.077-.614-.577-1.152-1.19-1.229a4.094 4.094 0 0 0-1.806.192l-18.508 4.877c-6.068 1.613-12.289 3.84-18.51 4.838-2.764.346-5.375 1.383-7.718 2.919ZM49.46 109.171a2.356 2.356 0 0 0-.96 1.767c-.04.537.306 1.036.806 1.228.422.077.883-.038 1.228-.23a110.958 110.958 0 0 1 24.5-6.989c2.15-.345 4.377-.691 6.22-2.573.461-.422.73-.96.768-1.574a1.41 1.41 0 0 0-.73-1.344 1.917 1.917 0 0 0-1.228.077l-12.672 3.609c-4.147 1.191-8.41 2.996-12.634 3.572a10.552 10.552 0 0 0-5.299 2.457Z"/><path fill="#fff" d="M54.336 153.331c-.346.039-.653-.23-.691-.576a.733.733 0 0 1 .576-.845c4.915-1.075 9.792-2.38 14.554-3.955a.674.674 0 0 1 .844.423v.038a.72.72 0 0 1-.46.883c-4.839 1.613-9.716 2.957-14.708 3.994-.038.038-.077.038-.115.038ZM55.411 158.554c-.307.038-.576-.154-.691-.461a.762.762 0 0 1 .422-.922 79.684 79.684 0 0 1 11.866-3.571.653.653 0 0 1 .768.499v.039a.79.79 0 0 1-.576.844 76.6 76.6 0 0 0-11.635 3.495c0 .038-.077.077-.154.077Z"/><path fill="#D8DB2F" d="M79.872 156.211a5.322 5.322 0 0 1-4.262-1.805c-.23-.307-.23-.729.076-.998.27-.269.692-.269.922-.038l.038.038a3.927 3.927 0 0 0 3.456 1.344 3.478 3.478 0 0 0 2.804-2.304c.384-1.19-.154-2.611-1.19-3.072-.692-.307-1.575-.269-2.458-.192-1.152.077-2.343.154-3.38-.499-1.344-.845-1.92-2.765-1.344-4.455.615-1.536 1.959-2.688 3.572-2.995 1.497-.269 2.995.077 4.262.96.307.231.384.653.154.96-.192.307-.615.423-.922.231a4.313 4.313 0 0 0-3.264-.768c-1.114.23-2.074.998-2.496 2.035-.384 1.037-.038 2.265.768 2.765.691.422 1.613.384 2.611.307.999-.077 2.112-.154 3.072.307 1.613.73 2.458 2.88 1.882 4.723-.615 1.767-2.15 3.072-3.994 3.341-.115.115-.23.115-.307.115Z"/><path fill="#D8DB2F" d="M81.907 157.632c-.307.038-.614-.192-.691-.499l-3.686-17.28a.768.768 0 0 1 .537-.883.688.688 0 0 1 .807.46v.039l3.686 17.28c.077.384-.154.768-.538.845l-.115.038ZM93.005 152.218a5.248 5.248 0 0 1-4.224-1.805c-.23-.307-.23-.73.077-.999.23-.268.652-.268.921-.038l.039.038a3.821 3.821 0 0 0 3.379 1.344 3.479 3.479 0 0 0 2.765-2.304c.384-1.19-.154-2.572-1.152-3.072-.692-.307-1.536-.268-2.42-.192-1.152.077-2.304.154-3.34-.499-1.344-.806-1.882-2.765-1.306-4.416a4.703 4.703 0 0 1 3.533-2.957 5.422 5.422 0 0 1 4.185.96c.308.231.384.653.154.96-.192.308-.614.423-.922.231a4.188 4.188 0 0 0-3.225-.768 3.393 3.393 0 0 0-2.458 2.035c-.384 1.037-.038 2.266.768 2.765.691.422 1.613.384 2.573.307.96-.077 2.074-.115 3.034.346 1.574.729 2.419 2.841 1.843 4.723-.576 1.766-2.074 3.072-3.917 3.341h-.307Z"/><path fill="#D8DB2F" d="M95.04 153.638a.596.596 0 0 1-.653-.499l-3.61-17.203c-.076-.384.154-.768.538-.845a.687.687 0 0 1 .807.461v.038l3.61 17.204c.076.384-.154.768-.5.844h-.192ZM104.794 149.376a5.206 5.206 0 0 1-4.186-1.766c-.23-.308-.23-.73.077-.999.23-.269.653-.269.921-.038l.039.038c.806.96 2.073 1.498 3.341 1.344 1.267-.192 2.342-1.075 2.726-2.265.384-1.191-.154-2.573-1.114-3.034-.691-.307-1.497-.269-2.419-.192-1.113.077-2.265.154-3.302-.499-1.306-.807-1.882-2.765-1.267-4.416a4.71 4.71 0 0 1 3.494-2.957 5.659 5.659 0 0 1 4.147.96c.307.23.384.653.154.96-.192.307-.576.422-.883.23h-.039c-.921-.652-2.073-.96-3.187-.768a3.398 3.398 0 0 0-2.458 2.036c-.384.998-.038 2.265.768 2.726.692.422 1.575.384 2.535.307.96-.077 2.035-.115 2.995.346 1.574.729 2.381 2.841 1.805 4.685-.576 1.766-2.074 3.033-3.917 3.34h-.23v-.038Z"/><path fill="#D8DB2F" d="M106.79 150.797a.596.596 0 0 1-.652-.499l-3.495-17.127a.736.736 0 0 1 .499-.845c.346-.076.692.116.768.461v.039l3.495 17.126a.736.736 0 0 1-.499.845h-.116Z"/><path fill="#fff" d="M118.963 92.851c-.307 0-.576-.192-.653-.46a.762.762 0 0 1 .423-.922 76.251 76.251 0 0 1 9.6-2.803.653.653 0 0 1 .768.499v.038c.077.384-.154.73-.538.845a82.833 82.833 0 0 0-9.446 2.765s-.077.038-.154.038ZM120.077 97.075a.686.686 0 0 1-.615-.384.747.747 0 0 1 .308-.96 11.828 11.828 0 0 1 4.262-1.382c.346-.039.653.23.691.576v.038a.692.692 0 0 1-.614.768c-1.306.154-2.611.538-3.763 1.19-.077.116-.154.116-.269.154ZM112.243 63.629c-.307 0-.537-.192-.653-.461-.115-.346.039-.768.384-.922a56.702 56.702 0 0 1 11.751-3.494c.345-.077.691.192.768.538v.038c.077.384-.192.73-.538.806-3.955.73-7.795 1.92-11.481 3.456-.077.039-.154.039-.231.039ZM114.547 67.43a.659.659 0 0 1-.653-.499c-.115-.384.077-.768.461-.921a16.214 16.214 0 0 1 5.223-.884c.384 0 .652.308.652.692a.715.715 0 0 1-.652.73c-1.652 0-3.264.268-4.8.806-.116.038-.154.076-.231.076ZM48.038 82.445c8.756-2.65 17.55-4.762 26.19-7.335.92-.268 1.88-.576 2.572-1.305l.038-.039c.922-.998-.038-2.572-1.305-2.227l-15.168 4.416c-4.723 1.383-10.138 3.955-15.053 3.418-1.114-.115-1.92.384-3.034.806-3.532 1.344.922 3.763 5.76 2.266Z"/><path fill="#D8DB2F" d="M134.477 94.157c-2.189-.5-4.493-.96-6.567-.23-3.148 1.075-4.492 4.454-5.491 7.487l-15.629 47.655c-.422 1.305-.844 2.688-.46 4.032.691 2.189 3.225 3.341 5.491 4.185l34.253 13.172c2.803 1.075 5.952 2.15 8.678 1.113 3.034-1.152 4.224-4.454 5.107-7.411l14.477-48.384c.576-1.958 1.19-4.07.614-6.067-1.574-5.683-12.326-7.488-17.318-9.139-7.603-2.496-15.322-4.608-23.155-6.413Z"/><path fill="#133041" d="M162.778 124.032c-.922-.038-1.805-.23-2.688-.499l-32.679-9.6c-.845-.231-1.997-.576-2.649-1.459-.884-1.114-.653-2.612-.384-3.917.537-2.496 1.19-5.645 3.225-7.795 1.728-1.844 4.263-2.458 6.835-1.652 2.727.845 5.492 1.46 8.41 2.074l.422.077a166.614 166.614 0 0 1 20.544 5.837c1.767.614 3.456 1.305 4.532 2.688 1.881 2.457.998 5.836-.154 8.793-.922 2.419-2.189 4.992-4.723 5.415-.231.038-.461.038-.691.038Zm-34.714-22.886c-1.92 2.035-2.573 5.068-3.072 7.526-.23 1.19-.461 2.534.269 3.456.499.653 1.382.96 2.381 1.229l32.678 9.6c.96.307 2.112.614 3.149.422 2.227-.384 3.417-2.765 4.262-5.03 1.075-2.842 1.92-6.029.231-8.256-.96-1.267-2.573-1.92-4.263-2.496a163.619 163.619 0 0 0-20.467-5.799l-.422-.076c-2.919-.615-5.684-1.229-8.448-2.074-2.42-.73-4.724-.192-6.298 1.498ZM147.994 163.2c-1.268-.077-2.496-.307-3.687-.768l-24.921-8.102c-2.189-.692-4.378-1.536-5.376-3.38-.999-1.843-.423-3.993.307-5.99l8.486-24.077c.576-1.613 1.421-2.688 2.535-3.225 2.073-.96 4.646-.039 7.411.921.883.307 1.766.615 2.649.883l20.544 5.914c2.112.614 4.071 1.267 5.223 2.88 1.497 2.074.806 4.685.038 6.95l-7.296 21.965c-.845 2.573-2.112 5.299-4.8 5.914a5.19 5.19 0 0 1-1.113.115Zm-24.653-42.163-8.525 24.077c-.653 1.881-1.229 3.84-.346 5.529.884 1.69 2.996 2.458 5.069 3.111l24.922 8.102c1.344.422 3.033.998 4.531.653 2.419-.576 3.533-2.995 4.378-5.568l7.296-21.965c.729-2.15 1.344-4.608.038-6.451-1.037-1.421-2.918-2.074-4.915-2.65l-20.544-5.913a72.046 72.046 0 0 1-2.688-.884c-2.65-.96-5.146-1.843-6.989-.96-.998.5-1.728 1.46-2.227 2.919Z"/><path fill="#133041" d="M151.296 134.784h-.077a124.404 124.404 0 0 0-27.072-9.216c-.115-.038-.192-.115-.153-.23.038-.116.115-.192.23-.154a125.75 125.75 0 0 1 27.149 9.216c.077.038.153.154.077.269 0 .038-.077.115-.154.115ZM145.92 143.808h-.077a214.177 214.177 0 0 0-24.192-7.872c-.115-.038-.153-.115-.153-.23 0-.116.115-.154.23-.154 8.218 2.15 16.32 4.762 24.192 7.872.115.038.154.154.115.23.039.116-.038.154-.115.154ZM143.424 152.794h-.038l-23.847-6.912c-.115-.039-.153-.154-.115-.231.038-.115.154-.153.23-.115l23.847 6.912c.115.038.153.154.115.23-.038.039-.115.116-.192.116Z"/><path fill="#133041" d="M126.413 153.216h-.039c-.115-.038-.153-.115-.153-.23a218.34 218.34 0 0 1 8.025-29.031c.039-.115.154-.153.231-.115.115.038.153.154.115.23-3.302 9.485-5.99 19.162-7.987 28.992-.039.077-.115.154-.192.154ZM135.206 156.365h-.038c-.115-.039-.154-.154-.115-.231l8.947-29.26c.038-.116.154-.154.23-.154.077 0 .154.154.154.23l-8.986 29.261c0 .077-.076.154-.192.154ZM144.576 158.976h-.038c-.116-.038-.154-.154-.116-.23l8.909-29.069c.039-.115.154-.154.231-.115.115.038.153.115.115.23l-8.909 29.03c-.038.077-.077.154-.192.154ZM156.288 138.662h-.077l-4.531-1.651c-.115-.038-.154-.153-.115-.23.038-.115.153-.154.23-.115l4.531 1.651c.116 0 .192.115.154.23 0 .077-.115.154-.192.115ZM129.37 112.243h-.039c-1.075-.269-1.958-1.037-2.304-2.112-.269-.96-.307-1.997-.038-2.957a12.703 12.703 0 0 1 4.147-6.796c.077-.077.192-.039.269.038.077.077.038.192-.039.269a11.92 11.92 0 0 0-4.032 6.566 4.854 4.854 0 0 0 0 2.765 2.767 2.767 0 0 0 1.997 1.843c.115 0 .154.115.154.231.038.076 0 .153-.115.153Z"/><path fill="#fff" d="M8.218 123.878c-.845 4.301.998 9.063 4.684 11.444 3.917 2.534 9.524 1.958 12.826-1.306 3.302-3.264 3.993-8.87 1.536-12.826-3.187-5.184-11.75-6.72-16.282-2.419a9.206 9.206 0 0 0-2.764 5.107Z"/><path fill="#fff" d="M17.472 137.856c-1.997 0-3.994-.538-5.683-1.613-3.725-2.381-5.683-7.219-4.8-11.712a10 10 0 0 1 2.841-5.261c2.112-1.996 5.223-2.88 8.525-2.457 3.495.461 6.567 2.304 8.218 4.953 2.534 4.032 1.805 9.831-1.575 13.172a10.829 10.829 0 0 1-7.526 2.918Zm-.691-20.621c-2.42-.077-4.723.807-6.528 2.419a9.227 9.227 0 0 0-2.65 4.954c-.845 4.301 1.037 8.87 4.531 11.136 3.802 2.458 9.293 1.882 12.48-1.267 3.188-3.149 3.879-8.64 1.498-12.48-1.536-2.496-4.454-4.263-7.795-4.685-.538-.038-1.037-.077-1.536-.077Z"/><path fill="#fff" d="M17.51 136.858c-1.843 0-3.61-.5-5.184-1.46-3.379-2.188-5.184-6.604-4.377-10.713.345-1.843 1.267-3.495 2.573-4.8 1.92-1.843 4.761-2.65 7.795-2.266 3.187.423 5.99 2.112 7.488 4.531 2.304 3.687 1.651 8.986-1.46 12.02-1.804 1.728-4.262 2.688-6.835 2.688Zm-8.985-12.096c-.768 3.878.921 8.064 4.109 10.137 3.456 2.227 8.41 1.728 11.328-1.152 2.918-2.88 3.532-7.833 1.344-11.328-1.421-2.265-4.07-3.84-7.104-4.262-2.842-.384-5.492.384-7.296 2.112a9.136 9.136 0 0 0-2.381 4.493Z"/><path fill="#133041" d="M19.738 131.942c-1.46.615-3.072.423-4.11-.499a.779.779 0 0 1 .078-1.075.752.752 0 0 1 .96-.038c.652.614 1.766.537 2.534.192.576-.231 1.075-.653 1.344-1.191a1.288 1.288 0 0 0-.192-1.421c-.5-.499-1.46-.345-1.997-.23-.192.038-.422.115-.614.154a6.138 6.138 0 0 1-2.496.307 3.482 3.482 0 0 1 1.113-6.874c.192.039.346.077.5.115.384.192.537.653.384 1.037-.154.307-.5.499-.845.423-1.037-.269-2.112.307-2.381 1.344-.269 1.036.307 2.112 1.344 2.38.038 0 .077.039.154.039a4.499 4.499 0 0 0 1.881-.269c.23-.077.461-.115.691-.192 1.46-.346 2.65-.115 3.418.653.768.845.96 2.073.5 3.11-.423.922-1.23 1.613-2.151 1.997l-.115.038Z"/><path fill="#133041" d="M22.003 133.133a.784.784 0 0 1-.883-.231 93.414 93.414 0 0 1-8.256-11.481c-.269-.346-.23-.807.115-1.075.346-.269.807-.231 1.075.115.039.038.077.115.116.153a97.906 97.906 0 0 0 8.102 11.328.78.78 0 0 1-.077 1.076c-.077.038-.153.076-.192.115Z"/><path fill="#fff" d="M175.142 83.866a10.966 10.966 0 0 1-3.302-.653c-3.571-1.19-7.142-2.611-10.56-4.032-2.573-1.037-5.222-2.112-7.91-3.072-4.724-1.728-11.866-3.955-19.2-3.687-.96.039-2.381.077-3.111-.921-.499-.653-.461-1.536-.384-2.343a240.75 240.75 0 0 1 2.151-17.472c.307-1.881.729-3.84 2.15-5.068 1.19-.999 2.842-1.23 4.186-1.344 7.756-.538 15.36 2.38 21.849 5.145l2.074.883c1.267.538 2.573 1.114 3.84 1.613a64.903 64.903 0 0 0 10.598 3.571c1.575.384 3.187.615 4.839.653 1.92.039 3.264.883 3.686 2.227.422 1.344 0 2.612-.538 4.07l-5.491 15.668c-.614 1.728-1.267 3.34-2.726 4.147a4.077 4.077 0 0 1-2.151.615ZM135.36 71.808c6.989 0 13.709 2.112 18.24 3.763 2.65.96 5.338 2.035 7.91 3.072 3.418 1.383 6.989 2.842 10.56 3.994 1.728.576 3.495.998 4.916.192 1.305-.73 1.92-2.227 2.496-3.84l5.491-15.667c.461-1.344.845-2.573.499-3.725-.461-1.613-2.534-1.805-3.149-1.843a21.99 21.99 0 0 1-4.953-.692c-3.648-.921-7.258-2.112-10.714-3.61a193.899 193.899 0 0 1-3.84-1.612l-2.074-.883c-6.451-2.727-13.977-5.645-21.58-5.107-1.306.076-2.765.307-3.84 1.19-1.268 1.075-1.652 2.918-1.959 4.685-.921 5.76-1.613 11.635-2.15 17.433-.077.768-.077 1.46.307 1.959.538.691 1.536.73 2.65.691h1.19Z"/><path fill="#fff" d="m169.382 80.14-.192-.076c-8.755-4.224-18.7-9.024-29.107-9.37h-.115l-.038-.115c-1.268-2.38-3.648-3.993-6.336-4.224l-.192-.038 2.227-14.208h.153a5.456 5.456 0 0 0 4.685-2.88c.192-.307.307-.691.346-1.075 0-.077 0-.154-.039-.27a.873.873 0 0 1 .039-.69c.307-.423 1.267-.27 2.304-.077.192.038.345.077.422.077a51.44 51.44 0 0 1 6.451 1.113c4.148.96 8.18 2.42 12.02 4.301a85.556 85.556 0 0 1 3.225 1.69c1.69.921 3.456 1.881 5.261 2.65 3.418 1.458 6.413 2.073 9.178 1.766h.192v.192a5.28 5.28 0 0 0 3.072 4.492l.153.077-.038.154c-1.575 4.723-3.379 9.331-5.491 13.824l-.077.192-.192-.115c-2.535-1.613-5.837-.845-7.45 1.65-.153.231-.269.462-.384.73l-.077.23Zm-29.184-9.868c10.407.384 20.276 5.107 28.992 9.331 1.344-2.88 4.8-4.109 7.68-2.726l.461.23a130.488 130.488 0 0 0 5.338-13.44c-1.728-.883-2.919-2.611-3.111-4.531-2.764.23-5.76-.384-9.177-1.843-1.805-.768-3.571-1.728-5.299-2.65a63.392 63.392 0 0 0-3.226-1.69 55.64 55.64 0 0 0-18.355-5.414c-.115 0-.269-.038-.461-.077-.538-.076-1.728-.307-1.958-.038 0 .115 0 .269.038.384.038.115.038.23.038.346a3.096 3.096 0 0 1-.384 1.19 5.882 5.882 0 0 1-4.838 3.11l-2.112 13.479a8.516 8.516 0 0 1 6.374 4.339Z"/><path fill="#fff" d="M155.174 56.294c-2.918 1.46-4.876 4.724-4.608 7.988.384 4.224 4.109 7.372 8.333 7.027 2.957-.269 5.53-2.189 6.567-4.992 1.574-4.263-1.421-10.023-6.029-10.714a6.83 6.83 0 0 0-4.263.691Z"/><path fill="#fff" d="M155.52 56.909c-2.65 1.344-4.454 4.3-4.186 7.257.346 3.84 3.725 6.72 7.565 6.375 2.727-.23 5.031-1.997 5.991-4.57 1.42-3.878-1.306-9.1-5.492-9.753a6.752 6.752 0 0 0-3.878.69Z"/><path fill="#fff" d="M158.208 70.771c-.307 0-.576 0-.883-.038a7.456 7.456 0 0 1-6.221-6.528c-.269-2.995 1.498-6.067 4.301-7.45a6.853 6.853 0 0 1 3.993-.653c1.959.308 3.725 1.575 4.877 3.533 1.229 2.074 1.498 4.493.768 6.451a7.43 7.43 0 0 1-6.835 4.685Zm-2.611-13.709c-2.65 1.344-4.263 4.11-4.071 7.066.308 3.763 3.61 6.528 7.373 6.22a6.811 6.811 0 0 0 5.799-4.415c.691-1.882.422-4.186-.73-6.144-1.075-1.843-2.765-3.072-4.608-3.38a6.664 6.664 0 0 0-3.763.653Z"/><path fill="#fff" d="M156.518 66.97a2.854 2.854 0 0 1-1.574-2.65c.038-.307.307-.576.614-.538.308.039.576.308.538.615-.038.653.499 1.267 1.037 1.574.384.23.883.346 1.344.23a.996.996 0 0 0 .768-.729c.077-.538-.461-1.037-.768-1.306-.115-.115-.231-.192-.384-.307a4.829 4.829 0 0 1-1.344-1.305 2.575 2.575 0 0 1 1.037-3.495 2.575 2.575 0 0 1 3.494 1.037c.038.115.115.192.154.307.115.307-.039.615-.346.73-.307.115-.614-.039-.73-.346-.307-.73-1.152-1.113-1.881-.806-.73.307-1.114 1.152-.807 1.881 0 .039.039.077.039.116.269.384.614.73.998.998.154.115.269.192.423.307.883.73 1.305 1.536 1.19 2.304-.154.845-.768 1.536-1.613 1.728-.729.192-1.497.077-2.189-.345Z"/><path fill="#fff" d="M156.826 68.851c-.231-.115-.308-.384-.269-.614.768-3.456 1.728-6.835 2.995-10.138a.612.612 0 0 1 .768-.269c.23.116.384.384.307.653a70.008 70.008 0 0 0-2.918 9.946.632.632 0 0 1-.691.46c-.077 0-.116 0-.192-.038ZM168.499 64.55a2.961 2.961 0 0 0-.729 2.612c.153 1.036.844 2.035 1.843 2.304.883.192 1.766-.116 2.381-.768a3.075 3.075 0 0 0 .806-2.381c-.23-2.035-2.65-3.38-4.301-1.767ZM143.578 58.214c-.807 1.076-.768 2.804.307 3.61.499.346 1.113.538 1.728.46a3.212 3.212 0 0 0 2.88-2.034c1.113-3.38-3.111-4.416-4.915-2.036Z"/><path fill="#D8DB2F" d="M152.448 52.723c-6.72-3.34-13.862-6.49-21.389-6.451-1.421 0-2.918.154-4.07 1.037-1.459 1.075-1.959 2.995-2.343 4.723a240.023 240.023 0 0 0-3.187 17.28c-.115.73-.192 1.574.192 2.189.576.883 1.805.921 2.842.96 6.605.153 12.979 2.265 19.046 4.877 6.067 2.61 11.866 5.76 18.01 8.217 1.651.653 3.533 1.267 5.145.5 1.46-.692 2.228-2.343 2.842-3.84 2.15-5.108 4.301-10.215 6.413-15.322.499-1.229 1.037-2.573.768-3.879-.346-1.497-1.882-2.112-3.264-2.227-1.651-.153-3.264-.499-4.839-.96a67.903 67.903 0 0 1-10.406-4.224c-1.92-.921-3.84-1.92-5.76-2.88Z"/><path fill="#133041" d="M159.091 82.56c-.038 0-.077 0-.077-.038-8.486-4.762-18.124-10.138-28.492-11.098-.077 0-.116-.038-.154-.115a8.002 8.002 0 0 0-6.067-4.608c-.115 0-.192-.115-.154-.23l2.995-13.71c0-.076.116-.153.192-.153 1.959.077 3.802-.922 4.839-2.611.192-.307.345-.653.422-1.037v-.269c-.077-.23-.038-.46.077-.691.346-.384 1.306-.192 2.304.038.192.039.346.077.422.116 2.151.384 4.301.883 6.375 1.497a56.44 56.44 0 0 1 11.712 5.03c1.037.615 2.112 1.268 3.11 1.882 1.651.999 3.341 2.074 5.107 2.957 3.303 1.69 6.298 2.458 9.024 2.342.039 0 .116 0 .154.039.038.038.038.077.038.153a5.309 5.309 0 0 0 2.804 4.685c.076.039.115.154.076.23a134.33 134.33 0 0 1-6.297 13.479c-.039.038-.077.077-.115.077-.039 0-.116 0-.154-.039-2.381-1.766-5.76-1.228-7.526 1.19-.154.231-.308.5-.461.73-.039.039-.077.077-.115.077 0 .077 0 .077-.039.077Zm-28.416-11.52c10.368.998 19.93 6.336 28.378 11.06 1.536-2.804 5.069-3.802 7.872-2.266.153.076.269.153.384.23a115.846 115.846 0 0 0 6.105-13.094 5.76 5.76 0 0 1-2.841-4.762c-2.765.077-5.722-.73-9.024-2.38-1.767-.884-3.456-1.96-5.107-2.958a224.048 224.048 0 0 0-3.111-1.881 55.77 55.77 0 0 0-17.971-6.49c-.115 0-.269-.077-.461-.115-.537-.115-1.728-.422-1.958-.154a.645.645 0 0 0 0 .384v.346a3.499 3.499 0 0 1-.461 1.19 5.914 5.914 0 0 1-5.03 2.804l-2.919 13.324a8.727 8.727 0 0 1 6.144 4.762Z"/><path fill="#133041" d="M148.915 73.42c-.461 0-.96-.038-1.421-.153a8.261 8.261 0 0 1-6.451-7.641c-.077-3.341 2.074-6.605 5.261-7.95a7.722 7.722 0 0 1 4.454-.498c2.151.46 4.032 1.996 5.146 4.262 1.19 2.38 1.344 5.069.422 7.22-1.19 2.88-4.3 4.76-7.411 4.76Zm.423-15.782c-.96 0-1.92.192-2.765.576-2.957 1.268-4.992 4.301-4.915 7.412.076 4.108 3.494 7.334 7.564 7.257 2.88-.077 5.492-1.805 6.644-4.454.883-1.997.729-4.493-.384-6.72-1.076-2.074-2.804-3.533-4.762-3.955a8.4 8.4 0 0 0-1.382-.116Z"/><path fill="#D8DB2F" d="M146.765 58.598c-2.727 1.152-4.685 4.032-4.608 6.99a6.976 6.976 0 0 0 7.181 6.834c2.726-.076 5.184-1.69 6.259-4.185 1.651-3.763-.73-9.178-4.877-10.061a6.63 6.63 0 0 0-3.955.422Z"/><path fill="#133041" d="M147.149 68.736a2.916 2.916 0 0 1-1.421-2.726.596.596 0 0 1 .653-.5.597.597 0 0 1 .499.653c-.077.653.384 1.306.922 1.651.384.27.844.384 1.305.346.384-.077.691-.346.807-.691.076-.538-.384-1.075-.692-1.344l-.345-.307a4.394 4.394 0 0 1-1.229-1.421c-.499-1.344.154-2.842 1.498-3.341 1.344-.5 2.841.154 3.34 1.498.077.307-.076.614-.384.69-.307.078-.614-.076-.691-.383-.269-.768-1.075-1.19-1.843-.922-.768.269-1.19 1.075-.922 1.843 0 .039.039.077.039.116.23.422.576.768.96 1.036l.384.346c.845.768 1.19 1.574 1.037 2.38-.192.846-.884 1.46-1.728 1.614-.73.115-1.498-.077-2.151-.5l-.038-.038Z"/><path fill="#133041" d="M147.341 70.618c-.192-.154-.307-.384-.231-.615.96-3.379 2.151-6.72 3.61-9.907.115-.269.461-.422.768-.307.269.115.422.46.307.768-1.421 3.149-2.573 6.413-3.533 9.753-.076.308-.384.461-.691.384-.115-.038-.153-.038-.23-.076ZM160.704 72.384a2.24 2.24 0 0 1-.73-.115c-1.152-.384-1.804-1.613-1.881-2.65a3.451 3.451 0 0 1 .998-2.841 2.592 2.592 0 0 1 2.803-.461 3.031 3.031 0 0 1 1.844 2.688 3.39 3.39 0 0 1-1.037 2.573c-.576.537-1.267.806-1.997.806Zm-1.267-5.146a2.776 2.776 0 0 0-.807 2.343c.077.845.576 1.843 1.498 2.15.768.192 1.574 0 2.112-.537a2.7 2.7 0 0 0 .845-2.112 2.486 2.486 0 0 0-1.498-2.19c-.691-.345-1.574-.191-2.15.346ZM136.55 63.667c-.729 0-1.382-.23-1.92-.653-.499-.422-.806-1.075-.845-1.728a3.006 3.006 0 0 1 .73-2.265c1.075-1.267 2.918-1.575 4.378-.768 1.152.691 1.459 1.958.883 3.379-.576 1.267-1.843 2.035-3.226 2.035Zm-1.574-4.3c-.423.537-.653 1.19-.576 1.881.038.5.269.998.653 1.344.422.346.998.538 1.536.5a2.899 2.899 0 0 0 2.726-1.69c.461-1.152.23-2.15-.653-2.688-1.267-.692-2.803-.384-3.686.652Z"/><path fill="#fff" d="M122.918 19.891c-3.801 2.189-6.22 6.682-5.606 11.021.653 4.608 4.762 8.486 9.37 8.832 4.608.346 9.292-2.803 10.713-7.22 1.805-5.798-2.611-13.286-8.832-13.9a9.957 9.957 0 0 0-5.645 1.267Z"/><path fill="#fff" d="M126.336 39.898c-.269 0-.499 0-.768-.039-4.762-.384-8.986-4.377-9.638-9.1-.615-4.378 1.728-9.025 5.721-11.329 1.767-1.036 3.802-1.459 5.837-1.305 2.88.307 5.606 2.035 7.45 4.838 1.958 2.957 2.572 6.49 1.651 9.447-1.383 4.339-5.76 7.488-10.253 7.488Zm.269-21.236c-1.651 0-3.226.461-4.647 1.268-3.801 2.15-6.028 6.566-5.452 10.752.614 4.454 4.646 8.256 9.139 8.601 4.493.346 9.062-2.726 10.406-7.027.883-2.803.269-6.144-1.574-8.986-1.728-2.65-4.301-4.3-7.027-4.57-.308 0-.576-.038-.845-.038Z"/><path fill="#fff" d="M126.413 38.9c-.231 0-.461 0-.691-.04-4.34-.345-8.218-3.993-8.832-8.294-.576-3.993 1.574-8.256 5.222-10.33a9.206 9.206 0 0 1 5.338-1.19c2.649.27 5.107 1.882 6.796 4.416 1.767 2.688 2.343 5.914 1.498 8.64-1.19 3.917-5.222 6.797-9.331 6.797Zm-4.109-18.394.154.268c-3.456 1.959-5.492 5.952-4.954 9.754.576 4.07 4.224 7.488 8.294 7.834 4.071.345 8.256-2.458 9.447-6.375.806-2.534.269-5.606-1.421-8.14-1.574-2.381-3.917-3.917-6.374-4.148a8.408 8.408 0 0 0-4.992 1.114l-.154-.307Z"/><path fill="#133041" d="M124.377 33.907c-1.42-.73-2.304-2.073-2.304-3.417a.77.77 0 0 1 .768-.768c.423 0 .73.345.73.768 0 .883.73 1.69 1.498 2.035.537.307 1.19.384 1.804.23.5-.153.884-.537.96-1.075.039-.691-.691-1.344-1.152-1.69a4.654 4.654 0 0 1-.537-.384 6.203 6.203 0 0 1-1.843-1.612 3.52 3.52 0 0 1 1.113-4.8 3.52 3.52 0 0 1 4.8 1.113l.231.461c.192.384.076.845-.308 1.037-.384.192-.844.077-1.036-.307-.039-.039-.039-.116-.077-.154-.499-.998-1.69-1.46-2.727-.998a2.054 2.054 0 0 0-.729 2.803c.384.499.883.921 1.421 1.229.192.115.384.268.576.384 1.228.883 1.843 1.92 1.766 3.033a2.793 2.793 0 0 1-2.035 2.42c-.999.268-2.035.153-2.919-.346v.038Z"/><path fill="#133041" d="M124.915 36.403c-.307-.153-.461-.46-.422-.806.768-4.647 1.843-9.255 3.264-13.747a.769.769 0 0 1 .883-.615c.384.077.691.5.614.883 0 .077-.038.116-.038.154-1.382 4.416-2.496 8.947-3.226 13.555-.076.423-.46.691-.883.653a.655.655 0 0 1-.192-.077Z"/><path fill="#fff" d="M22.771 125.53c-3.801 2.15-6.22 6.681-5.606 11.02.653 4.608 4.761 8.487 9.37 8.832 4.607.346 9.292-2.803 10.675-7.219 1.804-5.798-2.612-13.286-8.832-13.901-1.92-.153-3.917.308-5.607 1.268Z"/><path fill="#fff" d="M26.189 145.536c-.269 0-.5 0-.768-.038-4.762-.384-8.986-4.378-9.677-9.101-.614-4.378 1.728-9.024 5.722-11.328 1.766-1.037 3.801-1.459 5.836-1.306 2.88.307 5.607 2.035 7.45 4.839 1.958 2.956 2.573 6.489 1.651 9.446-1.305 4.301-5.721 7.488-10.214 7.488Zm-4.378-19.968c-3.801 2.15-6.067 6.566-5.453 10.752.615 4.454 4.647 8.256 9.14 8.602 4.492.345 9.062-2.727 10.406-7.028.883-2.803.269-6.144-1.574-8.985-1.728-2.65-4.301-4.301-7.028-4.57a9.434 9.434 0 0 0-5.49 1.229Z"/><path fill="#fff" d="M26.304 144.538c-.23 0-.46 0-.691-.039-4.34-.345-8.218-3.993-8.832-8.294-.576-3.994 1.574-8.256 5.222-10.33a9.207 9.207 0 0 1 5.338-1.19c2.65.269 5.107 1.881 6.797 4.416 1.766 2.688 2.342 5.913 1.497 8.64-1.229 3.917-5.222 6.797-9.331 6.797Zm.23-19.316a8.507 8.507 0 0 0-4.224 1.152c-3.456 1.959-5.49 5.952-4.953 9.754.576 4.032 4.224 7.488 8.294 7.834 4.07.345 8.218-2.458 9.447-6.375.806-2.534.268-5.568-1.421-8.141-1.575-2.38-3.917-3.916-6.375-4.147-.268-.038-.537-.077-.768-.077Z"/><path fill="#133041" d="M24.23 139.546c-1.42-.73-2.304-2.074-2.304-3.418a.77.77 0 0 1 .768-.768.77.77 0 0 1 .768.768c-.038.883.73 1.69 1.498 2.035.538.307 1.19.384 1.805.231.499-.154.883-.538.96-1.076.038-.691-.691-1.344-1.152-1.689l-.538-.384a6.354 6.354 0 0 1-1.843-1.651c-.998-1.613-.5-3.764 1.114-4.8 1.612-.999 3.763-.5 4.8 1.113.076.154.192.307.23.461.192.384.077.845-.307 1.037-.384.192-.845.077-1.037-.307-.038-.039-.038-.116-.077-.192a1.968 1.968 0 0 0-2.611-.922 1.968 1.968 0 0 0-.922 2.611c.039.039.039.077.077.115.384.5.845.922 1.421 1.229.192.115.384.269.576.384 1.229.883 1.843 1.92 1.766 3.034a2.792 2.792 0 0 1-2.035 2.419c-.998.384-2.035.269-2.957-.23Z"/><path fill="#133041" d="M24.806 142.042c-.307-.154-.46-.461-.422-.807a101.212 101.212 0 0 1 3.264-13.785.75.75 0 0 1 .883-.615.75.75 0 0 1 .615.883c0 .077-.039.116-.077.192a100.91 100.91 0 0 0-3.226 13.556.75.75 0 0 1-.883.614c-.038 0-.115 0-.154-.038Z"/><path fill="#D8DB2F" d="M22.003 81.562c9.255-10.79 18.778-21.773 31.143-28.762-3.226 10.022-8.91 19.085-15.552 27.226-6.644 8.14-14.285 15.398-21.927 22.656-1.19 1.113-3.302 3.34-5.145 2.572-1.46-.576-1.613-2.649-1.46-3.955.538-4.57 4.532-9.293 7.22-12.825 1.843-2.381 3.763-4.647 5.721-6.912Z"/><path fill="#fff" d="M9.216 103.258c.307-.423.73-.768 1.229-.999a1.161 1.161 0 0 1 1.459.423c.346.576-.077 1.305-.5 1.843-.69.883-4.07 6.336-4.991 5.03-1.152-1.613 1.958-5.299 2.803-6.297ZM23.462 99.61c2.496-2.573 3.917-5.99 5.184-9.332.576-1.497 1.114-3.033 2.036-4.339.921-1.305 2.265-2.38 3.878-2.611.768-.154 1.536.077 2.112.538.538.537.691 1.497.154 2.035-.538.537-1.344.422-2.036.537-1.804.346-2.88 2.112-3.686 3.764-1.651 3.379-2.995 6.912-5.26 9.868-2.266 2.957-5.646 5.415-9.37 5.376-2.65-.038-3.456-1.728-.538-2.265 2.957-.576 5.338-1.267 7.526-3.571ZM48.768 63.437c-.845 5.491-4.646 10.022-8.294 14.246-.96 1.114-1.997 2.266-3.38 2.727-2.112.69-4.377-.461-6.182-1.767-1.613-1.152-3.264-2.803-3.072-4.761.115-1.344 1.114-2.458 2.074-3.418a164.373 164.373 0 0 1 10.214-9.83c1.843-1.613 2.227-1.23 3.84.345.307.23 4.685 3.034 4.8 2.458Z"/><path fill="#fff" d="M19.622 98.995c-.153.845-1.036 1.498-1.881 1.613-.883.077-1.766-.115-2.573-.499a9.519 9.519 0 0 1-4.109-3.264c-.384-.615-.768-2.611.576-2.074.807.307 1.613 1.46 2.343 1.959.422.23 5.568 2.764 5.644 2.265Z"/></svg>