<svg xmlns="http://www.w3.org/2000/svg" width="40" height="40" viewBox="0 0 40 40"><g fill="none" fill-rule="evenodd"><circle cx="20" cy="20" r="20" fill="#F9818E"/><path fill="#FFF" fill-rule="nonzero" d="M25.057 15H14.944C12.212 15 10 17.03 10 19.885c0 2.857 2.212 4.936 4.944 4.936h10.113c2.733 0 4.943-2.08 4.943-4.936S27.79 15 25.057 15ZM17.5 20.388c0 .12-.108.237-.234.237h-1.552v1.569c0 .126-.138.217-.259.217H14.5c-.118 0-.213-.086-.213-.203v-1.583h-1.569c-.126 0-.217-.139-.217-.26v-.956c0-.117.086-.213.202-.213h1.584v-1.554c0-.125.082-.231.203-.231h.989c.12 0 .236.108.236.234v1.551h1.555c.125 0 .231.083.231.204v.988Zm5.347.393a.862.862 0 0 1-.869-.855c0-.472.39-.856.869-.856.481 0 .87.384.87.856 0 .471-.389.855-.87.855Zm1.9 1.866a.86.86 0 0 1-.87-.852.86.86 0 0 1 .87-.855c.48 0 .87.38.87.855a.86.86 0 0 1-.87.852Zm0-3.736a.862.862 0 0 1-.87-.854c0-.472.39-.856.87-.856s.87.384.87.856a.862.862 0 0 1-.87.854Zm1.899 1.87a.862.862 0 0 1-.868-.855c0-.472.389-.856.868-.856s.868.384.868.856a.862.862 0 0 1-.868.855Z"/></g></svg>